G04 #@! TF.FileFunction,Copper,L2,Bot,Signal*
%FSLAX46Y46*%
G04 Gerber Fmt 4.6, Leading zero omitted, Abs format (unit mm)*
G04 Created by KiCad (PCBNEW 4.0.7-e1-6374~58~ubuntu14.04.1) date Wed Aug  9 00:51:57 2017*
%MOMM*%
%LPD*%
G01*
G04 APERTURE LIST*
%ADD10C,0.100000*%
%ADD11R,1.727200X1.727200*%
%ADD12O,1.727200X1.727200*%
%ADD13O,1.501140X2.499360*%
%ADD14R,1.850000X1.850000*%
%ADD15C,1.850000*%
%ADD16R,1.400000X1.400000*%
%ADD17C,1.400000*%
%ADD18C,1.998980*%
%ADD19R,2.000000X2.000000*%
%ADD20C,2.000000*%
%ADD21C,0.600000*%
%ADD22C,2.400000*%
%ADD23C,0.250000*%
%ADD24C,0.254000*%
G04 APERTURE END LIST*
D10*
D11*
X37211000Y-82550000D03*
D12*
X39751000Y-82550000D03*
X37211000Y-85090000D03*
X39751000Y-85090000D03*
X37211000Y-87630000D03*
X39751000Y-87630000D03*
X37211000Y-90170000D03*
X39751000Y-90170000D03*
X37211000Y-92710000D03*
X39751000Y-92710000D03*
D13*
X52578000Y-57658000D03*
X50038000Y-57658000D03*
X55118000Y-57658000D03*
X64770000Y-57658000D03*
X62230000Y-57658000D03*
X67310000Y-57658000D03*
X76962000Y-57658000D03*
X74422000Y-57658000D03*
X79502000Y-57658000D03*
X89154000Y-57658000D03*
X86614000Y-57658000D03*
X91694000Y-57658000D03*
X101346000Y-57658000D03*
X98806000Y-57658000D03*
X103886000Y-57658000D03*
X113538000Y-57658000D03*
X110998000Y-57658000D03*
X116078000Y-57658000D03*
D14*
X114554000Y-84963000D03*
D15*
X114554000Y-82463000D03*
D14*
X59944000Y-84455000D03*
D15*
X59944000Y-81955000D03*
D14*
X69723000Y-84328000D03*
D15*
X69723000Y-81828000D03*
D14*
X79121000Y-84582000D03*
D15*
X79121000Y-82082000D03*
D14*
X88138000Y-84709000D03*
D15*
X88138000Y-82209000D03*
D14*
X97028000Y-84709000D03*
D15*
X97028000Y-82209000D03*
D14*
X105791000Y-85090000D03*
D15*
X105791000Y-82590000D03*
D14*
X49784000Y-93218000D03*
D15*
X52284000Y-93218000D03*
D11*
X125095000Y-82931000D03*
D12*
X127635000Y-82931000D03*
X125095000Y-85471000D03*
X127635000Y-85471000D03*
X125095000Y-88011000D03*
X127635000Y-88011000D03*
X125095000Y-90551000D03*
X127635000Y-90551000D03*
X125095000Y-93091000D03*
X127635000Y-93091000D03*
D16*
X128016000Y-58928000D03*
D17*
X123016000Y-58928000D03*
D18*
X130810000Y-55626000D03*
X120650000Y-55626000D03*
D19*
X64897000Y-121539000D03*
D20*
X64897000Y-111539000D03*
D19*
X104394000Y-121920000D03*
D20*
X104394000Y-111920000D03*
D21*
X113233200Y-78460600D03*
X95986600Y-78460600D03*
X68173600Y-80441800D03*
X48691800Y-80365600D03*
X120167400Y-85242400D03*
X71856400Y-79294400D03*
X61129000Y-63206000D03*
X70479800Y-62652000D03*
X55888400Y-60344500D03*
X81635100Y-65357100D03*
X93180000Y-66830700D03*
X105015700Y-62986300D03*
D22*
X128458000Y-57978000D02*
X128016000Y-57978000D01*
X128016000Y-58928000D02*
X128016000Y-57978000D01*
X130810000Y-55626000D02*
X128458000Y-57978000D01*
D23*
X38637400Y-87488800D02*
X38637400Y-87630000D01*
X37666100Y-86517500D02*
X38637400Y-87488800D01*
X36771300Y-86517500D02*
X37666100Y-86517500D01*
X36089200Y-87199600D02*
X36771300Y-86517500D01*
X36089200Y-90633800D02*
X36089200Y-87199600D01*
X37076400Y-91621000D02*
X36089200Y-90633800D01*
X40768700Y-91621000D02*
X37076400Y-91621000D01*
X44219900Y-95072200D02*
X40768700Y-91621000D01*
X94633800Y-95072200D02*
X44219900Y-95072200D01*
X104616000Y-85090000D02*
X94633800Y-95072200D01*
X105791000Y-85090000D02*
X104616000Y-85090000D01*
X39751000Y-87630000D02*
X38637400Y-87630000D01*
X39751000Y-82550000D02*
X40995600Y-82550000D01*
X120650000Y-78486000D02*
X125095000Y-82931000D01*
X113258600Y-78486000D02*
X120650000Y-78486000D01*
X113233200Y-78460600D02*
X113258600Y-78486000D01*
X91008200Y-78460600D02*
X95986600Y-78460600D01*
X90957400Y-78409800D02*
X91008200Y-78460600D01*
X70129400Y-78409800D02*
X90957400Y-78409800D01*
X69697600Y-78841600D02*
X70129400Y-78409800D01*
X69697600Y-78917800D02*
X69697600Y-78841600D01*
X68173600Y-80441800D02*
X69697600Y-78917800D01*
X43180000Y-80365600D02*
X48691800Y-80365600D01*
X40995600Y-82550000D02*
X43180000Y-80365600D01*
X128574800Y-82931000D02*
X127635000Y-82931000D01*
X130860800Y-85217000D02*
X128574800Y-82931000D01*
X130860800Y-95300800D02*
X130860800Y-85217000D01*
X129997200Y-96164400D02*
X130860800Y-95300800D01*
X121031000Y-96164400D02*
X129997200Y-96164400D01*
X119303800Y-94437200D02*
X121031000Y-96164400D01*
X119303800Y-86106000D02*
X119303800Y-94437200D01*
X120167400Y-85242400D02*
X119303800Y-86106000D01*
X115141500Y-84963000D02*
X114554000Y-84963000D01*
X77144000Y-84582000D02*
X79121000Y-84582000D01*
X71856400Y-79294400D02*
X77144000Y-84582000D01*
X122323000Y-83812600D02*
X123981400Y-85471000D01*
X101746200Y-83812600D02*
X122323000Y-83812600D01*
X101492200Y-83558600D02*
X101746200Y-83812600D01*
X81319400Y-83558600D02*
X101492200Y-83558600D01*
X80296000Y-84582000D02*
X81319400Y-83558600D01*
X79121000Y-84582000D02*
X80296000Y-84582000D01*
X125095000Y-85471000D02*
X123981400Y-85471000D01*
X97028000Y-84709000D02*
X95853000Y-84709000D01*
X37211000Y-87630000D02*
X37211000Y-88743600D01*
X37326400Y-88743600D02*
X37211000Y-88743600D01*
X38481000Y-89898200D02*
X37326400Y-88743600D01*
X38481000Y-90483700D02*
X38481000Y-89898200D01*
X39256300Y-91259000D02*
X38481000Y-90483700D01*
X41118200Y-91259000D02*
X39256300Y-91259000D01*
X44581000Y-94721800D02*
X41118200Y-91259000D01*
X85840200Y-94721800D02*
X44581000Y-94721800D01*
X95853000Y-84709000D02*
X85840200Y-94721800D01*
X69723000Y-84328000D02*
X68548000Y-84328000D01*
X39751000Y-90170000D02*
X40864600Y-90170000D01*
X45063000Y-94368400D02*
X40864600Y-90170000D01*
X58507600Y-94368400D02*
X45063000Y-94368400D01*
X68548000Y-84328000D02*
X58507600Y-94368400D01*
D22*
X101346000Y-52509400D02*
X101346000Y-57658000D01*
X76962000Y-52728500D02*
X76962000Y-57658000D01*
X64770000Y-52615000D02*
X64770000Y-57658000D01*
X52578000Y-52947600D02*
X52578000Y-57658000D01*
X89154000Y-52865900D02*
X89154000Y-57658000D01*
X113538000Y-53116800D02*
X113538000Y-57658000D01*
X126007900Y-55936100D02*
X123016000Y-58928000D01*
X126007900Y-53051400D02*
X126007900Y-55936100D01*
D23*
X50934400Y-91868400D02*
X52284000Y-93218000D01*
X50934400Y-74908500D02*
X50934400Y-91868400D01*
X105791000Y-75763900D02*
X105791000Y-82590000D01*
X97028000Y-76819300D02*
X97028000Y-82209000D01*
X94842900Y-74634200D02*
X97028000Y-76819300D01*
D22*
X116078000Y-61449300D02*
X116078000Y-57658000D01*
X103886000Y-61115500D02*
X103886000Y-57658000D01*
X91694000Y-61368300D02*
X91694000Y-57658000D01*
X79502000Y-61226500D02*
X79502000Y-57658000D01*
X67310000Y-61287300D02*
X67310000Y-57658000D01*
X55118000Y-61307500D02*
X55118000Y-57658000D01*
X119323600Y-56952400D02*
X120650000Y-55626000D01*
X119323600Y-60514100D02*
X119323600Y-56952400D01*
D23*
X104394000Y-121920000D02*
X65278000Y-121920000D01*
X65278000Y-121920000D02*
X64897000Y-121539000D01*
X64897000Y-111539000D02*
X104013000Y-111539000D01*
X104013000Y-111539000D02*
X104394000Y-111920000D01*
D24*
G36*
X132132000Y-54365064D02*
X132107541Y-54328459D01*
X131512224Y-53930681D01*
X130810000Y-53791000D01*
X130107776Y-53930681D01*
X129512459Y-54328459D01*
X129362368Y-54478550D01*
X122041573Y-54469188D01*
X121947541Y-54328459D01*
X121352224Y-53930681D01*
X120650000Y-53791000D01*
X119947776Y-53930681D01*
X119352459Y-54328459D01*
X119215344Y-54465574D01*
X34238000Y-54356907D01*
X34238000Y-38302000D01*
X132132000Y-38302000D01*
X132132000Y-54365064D01*
X132132000Y-54365064D01*
G37*
X132132000Y-54365064D02*
X132107541Y-54328459D01*
X131512224Y-53930681D01*
X130810000Y-53791000D01*
X130107776Y-53930681D01*
X129512459Y-54328459D01*
X129362368Y-54478550D01*
X122041573Y-54469188D01*
X121947541Y-54328459D01*
X121352224Y-53930681D01*
X120650000Y-53791000D01*
X119947776Y-53930681D01*
X119352459Y-54328459D01*
X119215344Y-54465574D01*
X34238000Y-54356907D01*
X34238000Y-38302000D01*
X132132000Y-38302000D01*
X132132000Y-54365064D01*
G36*
X132132000Y-76581000D02*
X34238000Y-76581000D01*
X34238000Y-59944000D01*
X121184414Y-59944000D01*
X121669376Y-62005088D01*
X121690433Y-62050893D01*
X121727651Y-62084897D01*
X121793000Y-62103000D01*
X129667000Y-62103000D01*
X129716410Y-62092994D01*
X129758035Y-62064553D01*
X129785315Y-62022159D01*
X129794000Y-61976000D01*
X129794000Y-59939022D01*
X132132000Y-59845502D01*
X132132000Y-76581000D01*
X132132000Y-76581000D01*
G37*
X132132000Y-76581000D02*
X34238000Y-76581000D01*
X34238000Y-59944000D01*
X121184414Y-59944000D01*
X121669376Y-62005088D01*
X121690433Y-62050893D01*
X121727651Y-62084897D01*
X121793000Y-62103000D01*
X129667000Y-62103000D01*
X129716410Y-62092994D01*
X129758035Y-62064553D01*
X129785315Y-62022159D01*
X129794000Y-61976000D01*
X129794000Y-59939022D01*
X132132000Y-59845502D01*
X132132000Y-76581000D01*
G36*
X132132000Y-113919000D02*
X34238000Y-113919000D01*
X34238000Y-112691532D01*
X63924073Y-112691532D01*
X64022736Y-112958387D01*
X64632461Y-113184908D01*
X65282460Y-113160856D01*
X65495693Y-113072532D01*
X103421073Y-113072532D01*
X103519736Y-113339387D01*
X104129461Y-113565908D01*
X104779460Y-113541856D01*
X105268264Y-113339387D01*
X105366927Y-113072532D01*
X104394000Y-112099605D01*
X103421073Y-113072532D01*
X65495693Y-113072532D01*
X65771264Y-112958387D01*
X65869927Y-112691532D01*
X64897000Y-111718605D01*
X63924073Y-112691532D01*
X34238000Y-112691532D01*
X34238000Y-111274461D01*
X63251092Y-111274461D01*
X63275144Y-111924460D01*
X63477613Y-112413264D01*
X63744468Y-112511927D01*
X64717395Y-111539000D01*
X65076605Y-111539000D01*
X66049532Y-112511927D01*
X66316387Y-112413264D01*
X66542908Y-111803539D01*
X66537429Y-111655461D01*
X102748092Y-111655461D01*
X102772144Y-112305460D01*
X102974613Y-112794264D01*
X103241468Y-112892927D01*
X104214395Y-111920000D01*
X104573605Y-111920000D01*
X105546532Y-112892927D01*
X105813387Y-112794264D01*
X106039908Y-112184539D01*
X106015856Y-111534540D01*
X105813387Y-111045736D01*
X105546532Y-110947073D01*
X104573605Y-111920000D01*
X104214395Y-111920000D01*
X103241468Y-110947073D01*
X102974613Y-111045736D01*
X102748092Y-111655461D01*
X66537429Y-111655461D01*
X66518856Y-111153540D01*
X66358940Y-110767468D01*
X103421073Y-110767468D01*
X104394000Y-111740395D01*
X105366927Y-110767468D01*
X105268264Y-110500613D01*
X104658539Y-110274092D01*
X104008540Y-110298144D01*
X103519736Y-110500613D01*
X103421073Y-110767468D01*
X66358940Y-110767468D01*
X66316387Y-110664736D01*
X66049532Y-110566073D01*
X65076605Y-111539000D01*
X64717395Y-111539000D01*
X63744468Y-110566073D01*
X63477613Y-110664736D01*
X63251092Y-111274461D01*
X34238000Y-111274461D01*
X34238000Y-110386468D01*
X63924073Y-110386468D01*
X64897000Y-111359395D01*
X65869927Y-110386468D01*
X65771264Y-110119613D01*
X65161539Y-109893092D01*
X64511540Y-109917144D01*
X64022736Y-110119613D01*
X63924073Y-110386468D01*
X34238000Y-110386468D01*
X34238000Y-98551254D01*
X132132000Y-98425909D01*
X132132000Y-113919000D01*
X132132000Y-113919000D01*
G37*
X132132000Y-113919000D02*
X34238000Y-113919000D01*
X34238000Y-112691532D01*
X63924073Y-112691532D01*
X64022736Y-112958387D01*
X64632461Y-113184908D01*
X65282460Y-113160856D01*
X65495693Y-113072532D01*
X103421073Y-113072532D01*
X103519736Y-113339387D01*
X104129461Y-113565908D01*
X104779460Y-113541856D01*
X105268264Y-113339387D01*
X105366927Y-113072532D01*
X104394000Y-112099605D01*
X103421073Y-113072532D01*
X65495693Y-113072532D01*
X65771264Y-112958387D01*
X65869927Y-112691532D01*
X64897000Y-111718605D01*
X63924073Y-112691532D01*
X34238000Y-112691532D01*
X34238000Y-111274461D01*
X63251092Y-111274461D01*
X63275144Y-111924460D01*
X63477613Y-112413264D01*
X63744468Y-112511927D01*
X64717395Y-111539000D01*
X65076605Y-111539000D01*
X66049532Y-112511927D01*
X66316387Y-112413264D01*
X66542908Y-111803539D01*
X66537429Y-111655461D01*
X102748092Y-111655461D01*
X102772144Y-112305460D01*
X102974613Y-112794264D01*
X103241468Y-112892927D01*
X104214395Y-111920000D01*
X104573605Y-111920000D01*
X105546532Y-112892927D01*
X105813387Y-112794264D01*
X106039908Y-112184539D01*
X106015856Y-111534540D01*
X105813387Y-111045736D01*
X105546532Y-110947073D01*
X104573605Y-111920000D01*
X104214395Y-111920000D01*
X103241468Y-110947073D01*
X102974613Y-111045736D01*
X102748092Y-111655461D01*
X66537429Y-111655461D01*
X66518856Y-111153540D01*
X66358940Y-110767468D01*
X103421073Y-110767468D01*
X104394000Y-111740395D01*
X105366927Y-110767468D01*
X105268264Y-110500613D01*
X104658539Y-110274092D01*
X104008540Y-110298144D01*
X103519736Y-110500613D01*
X103421073Y-110767468D01*
X66358940Y-110767468D01*
X66316387Y-110664736D01*
X66049532Y-110566073D01*
X65076605Y-111539000D01*
X64717395Y-111539000D01*
X63744468Y-110566073D01*
X63477613Y-110664736D01*
X63251092Y-111274461D01*
X34238000Y-111274461D01*
X34238000Y-110386468D01*
X63924073Y-110386468D01*
X64897000Y-111359395D01*
X65869927Y-110386468D01*
X65771264Y-110119613D01*
X65161539Y-109893092D01*
X64511540Y-109917144D01*
X64022736Y-110119613D01*
X63924073Y-110386468D01*
X34238000Y-110386468D01*
X34238000Y-98551254D01*
X132132000Y-98425909D01*
X132132000Y-113919000D01*
G36*
X132132000Y-135434000D02*
X34238000Y-135434000D01*
X34238000Y-121824750D01*
X63262000Y-121824750D01*
X63262000Y-122665309D01*
X63358673Y-122898698D01*
X63537301Y-123077327D01*
X63770690Y-123174000D01*
X64611250Y-123174000D01*
X64770000Y-123015250D01*
X64770000Y-121666000D01*
X65024000Y-121666000D01*
X65024000Y-123015250D01*
X65182750Y-123174000D01*
X66023310Y-123174000D01*
X66256699Y-123077327D01*
X66435327Y-122898698D01*
X66532000Y-122665309D01*
X66532000Y-122205750D01*
X102759000Y-122205750D01*
X102759000Y-123046309D01*
X102855673Y-123279698D01*
X103034301Y-123458327D01*
X103267690Y-123555000D01*
X104108250Y-123555000D01*
X104267000Y-123396250D01*
X104267000Y-122047000D01*
X104521000Y-122047000D01*
X104521000Y-123396250D01*
X104679750Y-123555000D01*
X105520310Y-123555000D01*
X105753699Y-123458327D01*
X105932327Y-123279698D01*
X106029000Y-123046309D01*
X106029000Y-122205750D01*
X105870250Y-122047000D01*
X104521000Y-122047000D01*
X104267000Y-122047000D01*
X102917750Y-122047000D01*
X102759000Y-122205750D01*
X66532000Y-122205750D01*
X66532000Y-121824750D01*
X66373250Y-121666000D01*
X65024000Y-121666000D01*
X64770000Y-121666000D01*
X63420750Y-121666000D01*
X63262000Y-121824750D01*
X34238000Y-121824750D01*
X34238000Y-120412691D01*
X63262000Y-120412691D01*
X63262000Y-121253250D01*
X63420750Y-121412000D01*
X64770000Y-121412000D01*
X64770000Y-120062750D01*
X65024000Y-120062750D01*
X65024000Y-121412000D01*
X66373250Y-121412000D01*
X66532000Y-121253250D01*
X66532000Y-120793691D01*
X102759000Y-120793691D01*
X102759000Y-121634250D01*
X102917750Y-121793000D01*
X104267000Y-121793000D01*
X104267000Y-120443750D01*
X104521000Y-120443750D01*
X104521000Y-121793000D01*
X105870250Y-121793000D01*
X106029000Y-121634250D01*
X106029000Y-120793691D01*
X105932327Y-120560302D01*
X105753699Y-120381673D01*
X105520310Y-120285000D01*
X104679750Y-120285000D01*
X104521000Y-120443750D01*
X104267000Y-120443750D01*
X104108250Y-120285000D01*
X103267690Y-120285000D01*
X103034301Y-120381673D01*
X102855673Y-120560302D01*
X102759000Y-120793691D01*
X66532000Y-120793691D01*
X66532000Y-120412691D01*
X66435327Y-120179302D01*
X66256699Y-120000673D01*
X66023310Y-119904000D01*
X65182750Y-119904000D01*
X65024000Y-120062750D01*
X64770000Y-120062750D01*
X64611250Y-119904000D01*
X63770690Y-119904000D01*
X63537301Y-120000673D01*
X63358673Y-120179302D01*
X63262000Y-120412691D01*
X34238000Y-120412691D01*
X34238000Y-119252092D01*
X132132000Y-119126909D01*
X132132000Y-135434000D01*
X132132000Y-135434000D01*
G37*
X132132000Y-135434000D02*
X34238000Y-135434000D01*
X34238000Y-121824750D01*
X63262000Y-121824750D01*
X63262000Y-122665309D01*
X63358673Y-122898698D01*
X63537301Y-123077327D01*
X63770690Y-123174000D01*
X64611250Y-123174000D01*
X64770000Y-123015250D01*
X64770000Y-121666000D01*
X65024000Y-121666000D01*
X65024000Y-123015250D01*
X65182750Y-123174000D01*
X66023310Y-123174000D01*
X66256699Y-123077327D01*
X66435327Y-122898698D01*
X66532000Y-122665309D01*
X66532000Y-122205750D01*
X102759000Y-122205750D01*
X102759000Y-123046309D01*
X102855673Y-123279698D01*
X103034301Y-123458327D01*
X103267690Y-123555000D01*
X104108250Y-123555000D01*
X104267000Y-123396250D01*
X104267000Y-122047000D01*
X104521000Y-122047000D01*
X104521000Y-123396250D01*
X104679750Y-123555000D01*
X105520310Y-123555000D01*
X105753699Y-123458327D01*
X105932327Y-123279698D01*
X106029000Y-123046309D01*
X106029000Y-122205750D01*
X105870250Y-122047000D01*
X104521000Y-122047000D01*
X104267000Y-122047000D01*
X102917750Y-122047000D01*
X102759000Y-122205750D01*
X66532000Y-122205750D01*
X66532000Y-121824750D01*
X66373250Y-121666000D01*
X65024000Y-121666000D01*
X64770000Y-121666000D01*
X63420750Y-121666000D01*
X63262000Y-121824750D01*
X34238000Y-121824750D01*
X34238000Y-120412691D01*
X63262000Y-120412691D01*
X63262000Y-121253250D01*
X63420750Y-121412000D01*
X64770000Y-121412000D01*
X64770000Y-120062750D01*
X65024000Y-120062750D01*
X65024000Y-121412000D01*
X66373250Y-121412000D01*
X66532000Y-121253250D01*
X66532000Y-120793691D01*
X102759000Y-120793691D01*
X102759000Y-121634250D01*
X102917750Y-121793000D01*
X104267000Y-121793000D01*
X104267000Y-120443750D01*
X104521000Y-120443750D01*
X104521000Y-121793000D01*
X105870250Y-121793000D01*
X106029000Y-121634250D01*
X106029000Y-120793691D01*
X105932327Y-120560302D01*
X105753699Y-120381673D01*
X105520310Y-120285000D01*
X104679750Y-120285000D01*
X104521000Y-120443750D01*
X104267000Y-120443750D01*
X104108250Y-120285000D01*
X103267690Y-120285000D01*
X103034301Y-120381673D01*
X102855673Y-120560302D01*
X102759000Y-120793691D01*
X66532000Y-120793691D01*
X66532000Y-120412691D01*
X66435327Y-120179302D01*
X66256699Y-120000673D01*
X66023310Y-119904000D01*
X65182750Y-119904000D01*
X65024000Y-120062750D01*
X64770000Y-120062750D01*
X64611250Y-119904000D01*
X63770690Y-119904000D01*
X63537301Y-120000673D01*
X63358673Y-120179302D01*
X63262000Y-120412691D01*
X34238000Y-120412691D01*
X34238000Y-119252092D01*
X132132000Y-119126909D01*
X132132000Y-135434000D01*
M02*
