M48
;DRILL file {KiCad 4.0.7-e1-6374~58~ubuntu14.04.1} date Wed Aug  9 00:52:00 2017
;FORMAT={-:-/ absolute / metric / decimal}
FMAT,2
METRIC,TZ
T1C0.400
T2C0.900
T3C1.001
T4C1.016
T5C1.500
%
G90
G05
M71
T1
X48.692Y-80.366
X55.888Y-60.344
X61.129Y-63.206
X68.174Y-80.442
X70.48Y-62.652
X71.856Y-79.294
X81.635Y-65.357
X93.18Y-66.831
X95.987Y-78.461
X105.016Y-62.986
X113.233Y-78.461
X120.167Y-85.242
T2
X49.784Y-93.218
X52.284Y-93.218
X59.944Y-81.955
X59.944Y-84.455
X69.723Y-81.828
X69.723Y-84.328
X79.121Y-82.082
X79.121Y-84.582
X88.138Y-82.209
X88.138Y-84.709
X97.028Y-82.209
X97.028Y-84.709
X105.791Y-82.59
X105.791Y-85.09
X114.554Y-82.463
X114.554Y-84.963
X123.016Y-58.928
X128.016Y-58.928
T3
X50.038Y-57.658
X52.578Y-57.658
X55.118Y-57.658
X62.23Y-57.658
X64.77Y-57.658
X67.31Y-57.658
X74.422Y-57.658
X76.962Y-57.658
X79.502Y-57.658
X86.614Y-57.658
X89.154Y-57.658
X91.694Y-57.658
X98.806Y-57.658
X101.346Y-57.658
X103.886Y-57.658
X110.998Y-57.658
X113.538Y-57.658
X116.078Y-57.658
X120.65Y-55.626
X130.81Y-55.626
T4
X37.211Y-82.55
X37.211Y-85.09
X37.211Y-87.63
X37.211Y-90.17
X37.211Y-92.71
X39.751Y-82.55
X39.751Y-85.09
X39.751Y-87.63
X39.751Y-90.17
X39.751Y-92.71
X125.095Y-82.931
X125.095Y-85.471
X125.095Y-88.011
X125.095Y-90.551
X125.095Y-93.091
X127.635Y-82.931
X127.635Y-85.471
X127.635Y-88.011
X127.635Y-90.551
X127.635Y-93.091
T5
X64.897Y-111.539
X64.897Y-121.539
X104.394Y-111.92
X104.394Y-121.92
T0
M30
