G04 #@! TF.FileFunction,Copper,L1,Top,Signal*
%FSLAX46Y46*%
G04 Gerber Fmt 4.6, Leading zero omitted, Abs format (unit mm)*
G04 Created by KiCad (PCBNEW 4.0.7-e1-6374~58~ubuntu14.04.1) date Wed Aug  9 00:51:57 2017*
%MOMM*%
%LPD*%
G01*
G04 APERTURE LIST*
%ADD10C,0.100000*%
%ADD11C,0.300000*%
%ADD12R,1.727200X1.727200*%
%ADD13O,1.727200X1.727200*%
%ADD14R,3.200000X3.600000*%
%ADD15R,1.200000X0.900000*%
%ADD16R,0.900000X1.200000*%
%ADD17O,1.501140X2.499360*%
%ADD18R,1.850000X1.850000*%
%ADD19C,1.850000*%
%ADD20R,1.400000X1.400000*%
%ADD21C,1.400000*%
%ADD22C,1.998980*%
%ADD23R,2.000000X2.000000*%
%ADD24C,2.000000*%
%ADD25C,0.600000*%
%ADD26C,0.250000*%
%ADD27C,0.254000*%
G04 APERTURE END LIST*
D10*
D11*
X74654000Y-95674571D02*
X74654000Y-94174571D01*
X75011143Y-94174571D01*
X75225428Y-94246000D01*
X75368286Y-94388857D01*
X75439714Y-94531714D01*
X75511143Y-94817429D01*
X75511143Y-95031714D01*
X75439714Y-95317429D01*
X75368286Y-95460286D01*
X75225428Y-95603143D01*
X75011143Y-95674571D01*
X74654000Y-95674571D01*
X76725428Y-95603143D02*
X76582571Y-95674571D01*
X76296857Y-95674571D01*
X76154000Y-95603143D01*
X76082571Y-95460286D01*
X76082571Y-94888857D01*
X76154000Y-94746000D01*
X76296857Y-94674571D01*
X76582571Y-94674571D01*
X76725428Y-94746000D01*
X76796857Y-94888857D01*
X76796857Y-95031714D01*
X76082571Y-95174571D01*
X77368285Y-95603143D02*
X77511142Y-95674571D01*
X77796857Y-95674571D01*
X77939714Y-95603143D01*
X78011142Y-95460286D01*
X78011142Y-95388857D01*
X77939714Y-95246000D01*
X77796857Y-95174571D01*
X77582571Y-95174571D01*
X77439714Y-95103143D01*
X77368285Y-94960286D01*
X77368285Y-94888857D01*
X77439714Y-94746000D01*
X77582571Y-94674571D01*
X77796857Y-94674571D01*
X77939714Y-94746000D01*
X78654000Y-95674571D02*
X78654000Y-94674571D01*
X78654000Y-94174571D02*
X78582571Y-94246000D01*
X78654000Y-94317429D01*
X78725428Y-94246000D01*
X78654000Y-94174571D01*
X78654000Y-94317429D01*
X80011143Y-94674571D02*
X80011143Y-95888857D01*
X79939714Y-96031714D01*
X79868286Y-96103143D01*
X79725429Y-96174571D01*
X79511143Y-96174571D01*
X79368286Y-96103143D01*
X80011143Y-95603143D02*
X79868286Y-95674571D01*
X79582572Y-95674571D01*
X79439714Y-95603143D01*
X79368286Y-95531714D01*
X79296857Y-95388857D01*
X79296857Y-94960286D01*
X79368286Y-94817429D01*
X79439714Y-94746000D01*
X79582572Y-94674571D01*
X79868286Y-94674571D01*
X80011143Y-94746000D01*
X80725429Y-94674571D02*
X80725429Y-95674571D01*
X80725429Y-94817429D02*
X80796857Y-94746000D01*
X80939715Y-94674571D01*
X81154000Y-94674571D01*
X81296857Y-94746000D01*
X81368286Y-94888857D01*
X81368286Y-95674571D01*
X82654000Y-95603143D02*
X82511143Y-95674571D01*
X82225429Y-95674571D01*
X82082572Y-95603143D01*
X82011143Y-95460286D01*
X82011143Y-94888857D01*
X82082572Y-94746000D01*
X82225429Y-94674571D01*
X82511143Y-94674571D01*
X82654000Y-94746000D01*
X82725429Y-94888857D01*
X82725429Y-95031714D01*
X82011143Y-95174571D01*
X84011143Y-95674571D02*
X84011143Y-94174571D01*
X84011143Y-95603143D02*
X83868286Y-95674571D01*
X83582572Y-95674571D01*
X83439714Y-95603143D01*
X83368286Y-95531714D01*
X83296857Y-95388857D01*
X83296857Y-94960286D01*
X83368286Y-94817429D01*
X83439714Y-94746000D01*
X83582572Y-94674571D01*
X83868286Y-94674571D01*
X84011143Y-94746000D01*
X85868286Y-95674571D02*
X85868286Y-94174571D01*
X85868286Y-94746000D02*
X86011143Y-94674571D01*
X86296857Y-94674571D01*
X86439714Y-94746000D01*
X86511143Y-94817429D01*
X86582572Y-94960286D01*
X86582572Y-95388857D01*
X86511143Y-95531714D01*
X86439714Y-95603143D01*
X86296857Y-95674571D01*
X86011143Y-95674571D01*
X85868286Y-95603143D01*
X87082572Y-94674571D02*
X87439715Y-95674571D01*
X87796857Y-94674571D02*
X87439715Y-95674571D01*
X87296857Y-96031714D01*
X87225429Y-96103143D01*
X87082572Y-96174571D01*
X89939714Y-94174571D02*
X89939714Y-95246000D01*
X89868286Y-95460286D01*
X89725429Y-95603143D01*
X89511143Y-95674571D01*
X89368286Y-95674571D01*
X91296857Y-95674571D02*
X91296857Y-94888857D01*
X91225428Y-94746000D01*
X91082571Y-94674571D01*
X90796857Y-94674571D01*
X90654000Y-94746000D01*
X91296857Y-95603143D02*
X91154000Y-95674571D01*
X90796857Y-95674571D01*
X90654000Y-95603143D01*
X90582571Y-95460286D01*
X90582571Y-95317429D01*
X90654000Y-95174571D01*
X90796857Y-95103143D01*
X91154000Y-95103143D01*
X91296857Y-95031714D01*
X91939714Y-95603143D02*
X92082571Y-95674571D01*
X92368286Y-95674571D01*
X92511143Y-95603143D01*
X92582571Y-95460286D01*
X92582571Y-95388857D01*
X92511143Y-95246000D01*
X92368286Y-95174571D01*
X92154000Y-95174571D01*
X92011143Y-95103143D01*
X91939714Y-94960286D01*
X91939714Y-94888857D01*
X92011143Y-94746000D01*
X92154000Y-94674571D01*
X92368286Y-94674571D01*
X92511143Y-94746000D01*
X93439715Y-95674571D02*
X93296857Y-95603143D01*
X93225429Y-95531714D01*
X93154000Y-95388857D01*
X93154000Y-94960286D01*
X93225429Y-94817429D01*
X93296857Y-94746000D01*
X93439715Y-94674571D01*
X93654000Y-94674571D01*
X93796857Y-94746000D01*
X93868286Y-94817429D01*
X93939715Y-94960286D01*
X93939715Y-95388857D01*
X93868286Y-95531714D01*
X93796857Y-95603143D01*
X93654000Y-95674571D01*
X93439715Y-95674571D01*
X94582572Y-94674571D02*
X94582572Y-95674571D01*
X94582572Y-94817429D02*
X94654000Y-94746000D01*
X94796858Y-94674571D01*
X95011143Y-94674571D01*
X95154000Y-94746000D01*
X95225429Y-94888857D01*
X95225429Y-95674571D01*
X97082572Y-95674571D02*
X97082572Y-94174571D01*
X97439715Y-94174571D01*
X97654000Y-94246000D01*
X97796858Y-94388857D01*
X97868286Y-94531714D01*
X97939715Y-94817429D01*
X97939715Y-95031714D01*
X97868286Y-95317429D01*
X97796858Y-95460286D01*
X97654000Y-95603143D01*
X97439715Y-95674571D01*
X97082572Y-95674571D01*
X99154000Y-95603143D02*
X99011143Y-95674571D01*
X98725429Y-95674571D01*
X98582572Y-95603143D01*
X98511143Y-95460286D01*
X98511143Y-94888857D01*
X98582572Y-94746000D01*
X98725429Y-94674571D01*
X99011143Y-94674571D01*
X99154000Y-94746000D01*
X99225429Y-94888857D01*
X99225429Y-95031714D01*
X98511143Y-95174571D01*
X99725429Y-94674571D02*
X100082572Y-95674571D01*
X100439714Y-94674571D01*
X101011143Y-95674571D02*
X101011143Y-94674571D01*
X101011143Y-94174571D02*
X100939714Y-94246000D01*
X101011143Y-94317429D01*
X101082571Y-94246000D01*
X101011143Y-94174571D01*
X101011143Y-94317429D01*
X101725429Y-94674571D02*
X101725429Y-95674571D01*
X101725429Y-94817429D02*
X101796857Y-94746000D01*
X101939715Y-94674571D01*
X102154000Y-94674571D01*
X102296857Y-94746000D01*
X102368286Y-94888857D01*
X102368286Y-95674571D01*
X103654000Y-95603143D02*
X103511143Y-95674571D01*
X103225429Y-95674571D01*
X103082572Y-95603143D01*
X103011143Y-95460286D01*
X103011143Y-94888857D01*
X103082572Y-94746000D01*
X103225429Y-94674571D01*
X103511143Y-94674571D01*
X103654000Y-94746000D01*
X103725429Y-94888857D01*
X103725429Y-95031714D01*
X103011143Y-95174571D01*
D12*
X37211000Y-82550000D03*
D13*
X39751000Y-82550000D03*
X37211000Y-85090000D03*
X39751000Y-85090000D03*
X37211000Y-87630000D03*
X39751000Y-87630000D03*
X37211000Y-90170000D03*
X39751000Y-90170000D03*
X37211000Y-92710000D03*
X39751000Y-92710000D03*
D14*
X97790000Y-65242000D03*
X97790000Y-73442000D03*
X109220000Y-64480000D03*
X109220000Y-72680000D03*
X86360000Y-66258000D03*
X86360000Y-74458000D03*
X72390000Y-66766000D03*
X72390000Y-74966000D03*
X48133000Y-66258000D03*
X48133000Y-74458000D03*
X61214000Y-66766000D03*
X61214000Y-74966000D03*
D15*
X54145000Y-61214000D03*
X56345000Y-61214000D03*
D16*
X70104000Y-63838000D03*
X70104000Y-61638000D03*
D15*
X96604000Y-61976000D03*
X94404000Y-61976000D03*
D16*
X92329000Y-69045000D03*
X92329000Y-66845000D03*
X104140000Y-65362000D03*
X104140000Y-63162000D03*
D15*
X64346000Y-63373000D03*
X62146000Y-63373000D03*
D16*
X80772000Y-67394000D03*
X80772000Y-65194000D03*
X78740000Y-70782000D03*
X78740000Y-72982000D03*
D15*
X49868000Y-61468000D03*
X47668000Y-61468000D03*
D16*
X104521000Y-68750000D03*
X104521000Y-70950000D03*
X85217000Y-60495000D03*
X85217000Y-62695000D03*
X55880000Y-69766000D03*
X55880000Y-71966000D03*
D17*
X52578000Y-57658000D03*
X50038000Y-57658000D03*
X55118000Y-57658000D03*
X64770000Y-57658000D03*
X62230000Y-57658000D03*
X67310000Y-57658000D03*
X76962000Y-57658000D03*
X74422000Y-57658000D03*
X79502000Y-57658000D03*
X89154000Y-57658000D03*
X86614000Y-57658000D03*
X91694000Y-57658000D03*
X101346000Y-57658000D03*
X98806000Y-57658000D03*
X103886000Y-57658000D03*
X113538000Y-57658000D03*
X110998000Y-57658000D03*
X116078000Y-57658000D03*
D18*
X114554000Y-84963000D03*
D19*
X114554000Y-82463000D03*
D18*
X59944000Y-84455000D03*
D19*
X59944000Y-81955000D03*
D18*
X69723000Y-84328000D03*
D19*
X69723000Y-81828000D03*
D18*
X79121000Y-84582000D03*
D19*
X79121000Y-82082000D03*
D18*
X88138000Y-84709000D03*
D19*
X88138000Y-82209000D03*
D18*
X97028000Y-84709000D03*
D19*
X97028000Y-82209000D03*
D18*
X105791000Y-85090000D03*
D19*
X105791000Y-82590000D03*
D18*
X49784000Y-93218000D03*
D19*
X52284000Y-93218000D03*
D12*
X125095000Y-82931000D03*
D13*
X127635000Y-82931000D03*
X125095000Y-85471000D03*
X127635000Y-85471000D03*
X125095000Y-88011000D03*
X127635000Y-88011000D03*
X125095000Y-90551000D03*
X127635000Y-90551000D03*
X125095000Y-93091000D03*
X127635000Y-93091000D03*
D20*
X128016000Y-58928000D03*
D21*
X123016000Y-58928000D03*
D22*
X130810000Y-55626000D03*
X120650000Y-55626000D03*
D23*
X64897000Y-121539000D03*
D24*
X64897000Y-111539000D03*
D23*
X104394000Y-121920000D03*
D24*
X104394000Y-111920000D03*
D25*
X113233200Y-78460600D03*
X95986600Y-78460600D03*
X68173600Y-80441800D03*
X48691800Y-80365600D03*
X120167400Y-85242400D03*
X71856400Y-79294400D03*
X61129000Y-63206000D03*
X70479800Y-62652000D03*
X55888400Y-60344500D03*
X81635100Y-65357100D03*
X93180000Y-66830700D03*
X105015700Y-62986300D03*
D26*
X126521400Y-87895600D02*
X126521400Y-88011000D01*
X125366800Y-86741000D02*
X126521400Y-87895600D01*
X108617000Y-86741000D02*
X125366800Y-86741000D01*
X106966000Y-85090000D02*
X108617000Y-86741000D01*
X105791000Y-85090000D02*
X106966000Y-85090000D01*
X127635000Y-88011000D02*
X126521400Y-88011000D01*
X111328200Y-78460600D02*
X113233200Y-78460600D01*
X95986600Y-78460600D02*
X111328200Y-78460600D01*
X48768000Y-80441800D02*
X68173600Y-80441800D01*
X48691800Y-80365600D02*
X48768000Y-80441800D01*
X114554000Y-84963000D02*
X117957600Y-84963000D01*
X119608600Y-85801200D02*
X120167400Y-85242400D01*
X118795800Y-85801200D02*
X119608600Y-85801200D01*
X117957600Y-84963000D02*
X118795800Y-85801200D01*
X37211000Y-82550000D02*
X39751000Y-82550000D01*
X127635000Y-82931000D02*
X127635000Y-83416400D01*
X126694000Y-83416400D02*
X126208600Y-82931000D01*
X125095000Y-82931000D02*
X126208600Y-82931000D01*
X127635000Y-83416400D02*
X126694000Y-83416400D01*
X49784000Y-93218000D02*
X49784000Y-95554800D01*
X50241200Y-95605600D02*
X50241200Y-95554800D01*
X49834800Y-95605600D02*
X50241200Y-95605600D01*
X49784000Y-95554800D02*
X49834800Y-95605600D01*
X125095000Y-93091000D02*
X115519200Y-93091000D01*
X42595800Y-95554800D02*
X39751000Y-92710000D01*
X52832000Y-95554800D02*
X50241200Y-95554800D01*
X50241200Y-95554800D02*
X42595800Y-95554800D01*
X54787800Y-93599000D02*
X52832000Y-95554800D01*
X115011200Y-93599000D02*
X54787800Y-93599000D01*
X115519200Y-93091000D02*
X115011200Y-93599000D01*
X39751000Y-92710000D02*
X37211000Y-92710000D01*
X127635000Y-93091000D02*
X125095000Y-93091000D01*
X97120000Y-63192000D02*
X97790000Y-63192000D01*
X96604000Y-62676000D02*
X97120000Y-63192000D01*
X96604000Y-61976000D02*
X96604000Y-62676000D01*
X97790000Y-65242000D02*
X97790000Y-63192000D01*
X98722200Y-59157800D02*
X96604000Y-61276000D01*
X98806000Y-59157800D02*
X98722200Y-59157800D01*
X96604000Y-61976000D02*
X96604000Y-61276000D01*
X98806000Y-57658000D02*
X98806000Y-59157800D01*
X95754000Y-61891500D02*
X95754000Y-61976000D01*
X95163100Y-61300600D02*
X95754000Y-61891500D01*
X92670000Y-61300600D02*
X95163100Y-61300600D01*
X92584700Y-61385900D02*
X92670000Y-61300600D01*
X85098800Y-61385900D02*
X92584700Y-61385900D01*
X84541600Y-61943100D02*
X85098800Y-61385900D01*
X84541600Y-63406900D02*
X84541600Y-61943100D01*
X84855900Y-63721200D02*
X84541600Y-63406900D01*
X87583500Y-63721200D02*
X84855900Y-63721200D01*
X92057300Y-68195000D02*
X87583500Y-63721200D01*
X92329000Y-68195000D02*
X92057300Y-68195000D01*
X92329000Y-69045000D02*
X92329000Y-68195000D01*
X96604000Y-61976000D02*
X95754000Y-61976000D01*
X110998000Y-60652000D02*
X109220000Y-62430000D01*
X110998000Y-57658000D02*
X110998000Y-60652000D01*
X109220000Y-64480000D02*
X109220000Y-62430000D01*
X104521000Y-68750000D02*
X104521000Y-67900000D01*
X109220000Y-64480000D02*
X107370000Y-64480000D01*
X104521000Y-67900000D02*
X104521000Y-66440500D01*
X104292500Y-66212000D02*
X104521000Y-66440500D01*
X104140000Y-66212000D02*
X104292500Y-66212000D01*
X105409500Y-66440500D02*
X107370000Y-64480000D01*
X104521000Y-66440500D02*
X105409500Y-66440500D01*
X104140000Y-65362000D02*
X104140000Y-66212000D01*
X78040000Y-70566000D02*
X74240000Y-66766000D01*
X78040000Y-70782000D02*
X78040000Y-70566000D01*
X72390000Y-66766000D02*
X74240000Y-66766000D01*
X78740000Y-70782000D02*
X78040000Y-70782000D01*
X70104000Y-63838000D02*
X70454000Y-63838000D01*
X71332000Y-64716000D02*
X72390000Y-64716000D01*
X70454000Y-63838000D02*
X71332000Y-64716000D01*
X72390000Y-66766000D02*
X72390000Y-64716000D01*
X74422000Y-59870000D02*
X70454000Y-63838000D01*
X74422000Y-57658000D02*
X74422000Y-59870000D01*
X126521400Y-85355600D02*
X126521400Y-85471000D01*
X125242800Y-84077000D02*
X126521400Y-85355600D01*
X119894300Y-84077000D02*
X125242800Y-84077000D01*
X119629900Y-83812600D02*
X119894300Y-84077000D01*
X101746200Y-83812600D02*
X119629900Y-83812600D01*
X101492200Y-83558600D02*
X101746200Y-83812600D01*
X90463400Y-83558600D02*
X101492200Y-83558600D01*
X89313000Y-84709000D02*
X90463400Y-83558600D01*
X127635000Y-85471000D02*
X126521400Y-85471000D01*
X88138000Y-84709000D02*
X88725500Y-84709000D01*
X88725500Y-84709000D02*
X89313000Y-84709000D01*
X49401100Y-85090000D02*
X39751000Y-85090000D01*
X51313500Y-83177600D02*
X49401100Y-85090000D01*
X78589700Y-83177600D02*
X51313500Y-83177600D01*
X78691100Y-83279000D02*
X78589700Y-83177600D01*
X87295500Y-83279000D02*
X78691100Y-83279000D01*
X88725500Y-84709000D02*
X87295500Y-83279000D01*
X49868000Y-61468000D02*
X49868000Y-61118000D01*
X49868000Y-61118000D02*
X49868000Y-60768000D01*
X53199000Y-61118000D02*
X53295000Y-61214000D01*
X49868000Y-61118000D02*
X53199000Y-61118000D01*
X54145000Y-61214000D02*
X53295000Y-61214000D01*
X48133000Y-66258000D02*
X48133000Y-64208000D01*
X50038000Y-60598000D02*
X49868000Y-60768000D01*
X50038000Y-57658000D02*
X50038000Y-60598000D01*
X46842600Y-62917600D02*
X48133000Y-64208000D01*
X46842600Y-60912000D02*
X46842600Y-62917600D01*
X46986600Y-60768000D02*
X46842600Y-60912000D01*
X49868000Y-60768000D02*
X46986600Y-60768000D01*
X56580000Y-69550000D02*
X59364000Y-66766000D01*
X56580000Y-69766000D02*
X56580000Y-69550000D01*
X61214000Y-66766000D02*
X59364000Y-66766000D01*
X55880000Y-69766000D02*
X56580000Y-69766000D01*
X63064000Y-65355000D02*
X63064000Y-66766000D01*
X64346000Y-64073000D02*
X63064000Y-65355000D01*
X64346000Y-63373000D02*
X64346000Y-64073000D01*
X61214000Y-66766000D02*
X63064000Y-66766000D01*
X62230000Y-60557000D02*
X64346000Y-62673000D01*
X62230000Y-57658000D02*
X62230000Y-60557000D01*
X64346000Y-63373000D02*
X64346000Y-62673000D01*
X85613400Y-59248600D02*
X85217000Y-59645000D01*
X85613400Y-57658000D02*
X85613400Y-59248600D01*
X86614000Y-57658000D02*
X85613400Y-57658000D01*
X85217000Y-60495000D02*
X85217000Y-60070000D01*
X85217000Y-60070000D02*
X85217000Y-59645000D01*
X86360000Y-66258000D02*
X84510000Y-66258000D01*
X82673000Y-67394000D02*
X84159500Y-65907500D01*
X80772000Y-67394000D02*
X82673000Y-67394000D01*
X84159500Y-61127500D02*
X84159500Y-65907500D01*
X85217000Y-60070000D02*
X84159500Y-61127500D01*
X84159500Y-65907500D02*
X84510000Y-66258000D01*
X38324600Y-84974600D02*
X38324600Y-85090000D01*
X39479200Y-83820000D02*
X38324600Y-84974600D01*
X41599900Y-83820000D02*
X39479200Y-83820000D01*
X46125500Y-79294400D02*
X41599900Y-83820000D01*
X71856400Y-79294400D02*
X46125500Y-79294400D01*
X37211000Y-85090000D02*
X38324600Y-85090000D01*
X97028000Y-84709000D02*
X98203000Y-84709000D01*
X125095000Y-88011000D02*
X123981400Y-88011000D01*
X101505000Y-88011000D02*
X98203000Y-84709000D01*
X123981400Y-88011000D02*
X101505000Y-88011000D01*
X38324600Y-90054600D02*
X38324600Y-90170000D01*
X39479200Y-88900000D02*
X38324600Y-90054600D01*
X54324000Y-88900000D02*
X39479200Y-88900000D01*
X58769000Y-84455000D02*
X54324000Y-88900000D01*
X37211000Y-90170000D02*
X38324600Y-90170000D01*
X59356500Y-84455000D02*
X58769000Y-84455000D01*
X59356500Y-84455000D02*
X59944000Y-84455000D01*
X59944000Y-84455000D02*
X61119000Y-84455000D01*
X125095000Y-90551000D02*
X123981400Y-90551000D01*
X67215000Y-90551000D02*
X61119000Y-84455000D01*
X123981400Y-90551000D02*
X67215000Y-90551000D01*
X126521400Y-90435600D02*
X126521400Y-90551000D01*
X125366800Y-89281000D02*
X126521400Y-90435600D01*
X75851000Y-89281000D02*
X125366800Y-89281000D01*
X70898000Y-84328000D02*
X75851000Y-89281000D01*
X69723000Y-84328000D02*
X70898000Y-84328000D01*
X127635000Y-90551000D02*
X126521400Y-90551000D01*
X114554000Y-82463000D02*
X114554000Y-63754000D01*
X114554000Y-63754000D02*
X113538000Y-62738000D01*
X113538000Y-62738000D02*
X113538000Y-57658000D01*
X105640000Y-70950000D02*
X107370000Y-72680000D01*
X104521000Y-70950000D02*
X105640000Y-70950000D01*
X109220000Y-72680000D02*
X107370000Y-72680000D01*
X47668000Y-61468000D02*
X47668000Y-62168000D01*
X72390000Y-74966000D02*
X74240000Y-74966000D01*
X55880000Y-71966000D02*
X55530000Y-71966000D01*
X48133000Y-74458000D02*
X49983000Y-74458000D01*
X52475000Y-66800000D02*
X52475000Y-71966000D01*
X47843000Y-62168000D02*
X52475000Y-66800000D01*
X47668000Y-62168000D02*
X47843000Y-62168000D01*
X55530000Y-71966000D02*
X52475000Y-71966000D01*
X52475000Y-71966000D02*
X49983000Y-74458000D01*
X97790000Y-73442000D02*
X97790000Y-71392000D01*
X59364000Y-74750000D02*
X56580000Y-71966000D01*
X59364000Y-74966000D02*
X59364000Y-74750000D01*
X55880000Y-71966000D02*
X56580000Y-71966000D01*
X61214000Y-74966000D02*
X59364000Y-74966000D01*
X61214000Y-74966000D02*
X63064000Y-74966000D01*
X86360000Y-74458000D02*
X84510000Y-74458000D01*
X78740000Y-72982000D02*
X78740000Y-73246500D01*
X75959500Y-73246500D02*
X78740000Y-73246500D01*
X74240000Y-74966000D02*
X75959500Y-73246500D01*
X83298500Y-73246500D02*
X84510000Y-74458000D01*
X78740000Y-73246500D02*
X83298500Y-73246500D01*
X60071000Y-81828000D02*
X69723000Y-81828000D01*
X59944000Y-81955000D02*
X60071000Y-81828000D01*
X97790000Y-73442000D02*
X95940000Y-73442000D01*
X88138000Y-82209000D02*
X88138000Y-77444500D01*
X87201500Y-76508000D02*
X88138000Y-77444500D01*
X86360000Y-76508000D02*
X87201500Y-76508000D01*
X91937500Y-77444500D02*
X95940000Y-73442000D01*
X88138000Y-77444500D02*
X91937500Y-77444500D01*
X86360000Y-74458000D02*
X86360000Y-76508000D01*
X94404000Y-61976000D02*
X94404000Y-62676000D01*
X85217000Y-62695000D02*
X94385000Y-62695000D01*
X94385000Y-62695000D02*
X94404000Y-62676000D01*
X94385000Y-67103000D02*
X98232000Y-70950000D01*
X94385000Y-62695000D02*
X94385000Y-67103000D01*
X104521000Y-70950000D02*
X98232000Y-70950000D01*
X98232000Y-70950000D02*
X97790000Y-71392000D01*
X63064000Y-74966000D02*
X72390000Y-74966000D01*
X72390000Y-74966000D02*
X72390000Y-77016000D01*
X74982100Y-82082000D02*
X72396900Y-79496800D01*
X79121000Y-82082000D02*
X74982100Y-82082000D01*
X70065700Y-81828000D02*
X72396900Y-79496800D01*
X69723000Y-81828000D02*
X70065700Y-81828000D01*
X72396900Y-77022900D02*
X72390000Y-77016000D01*
X72396900Y-79496800D02*
X72396900Y-77022900D01*
X62146000Y-63373000D02*
X61296000Y-63373000D01*
X61129000Y-63206000D02*
X61296000Y-63373000D01*
X70104000Y-61638000D02*
X70104000Y-62488000D01*
X70315800Y-62488000D02*
X70104000Y-62488000D01*
X70479800Y-62652000D02*
X70315800Y-62488000D01*
X56345000Y-61214000D02*
X56345000Y-60514000D01*
X56057900Y-60514000D02*
X56345000Y-60514000D01*
X55888400Y-60344500D02*
X56057900Y-60514000D01*
X80772000Y-65194000D02*
X81472000Y-65194000D01*
X81635100Y-65357100D02*
X81472000Y-65194000D01*
X92329000Y-66845000D02*
X93029000Y-66845000D01*
X93043300Y-66830700D02*
X93029000Y-66845000D01*
X93180000Y-66830700D02*
X93043300Y-66830700D01*
X104140000Y-63162000D02*
X104840000Y-63162000D01*
X105015700Y-62986300D02*
X104840000Y-63162000D01*
D27*
G36*
X132132000Y-135434000D02*
X34238000Y-135434000D01*
X34238000Y-121824750D01*
X63262000Y-121824750D01*
X63262000Y-122665309D01*
X63358673Y-122898698D01*
X63537301Y-123077327D01*
X63770690Y-123174000D01*
X64611250Y-123174000D01*
X64770000Y-123015250D01*
X64770000Y-121666000D01*
X65024000Y-121666000D01*
X65024000Y-123015250D01*
X65182750Y-123174000D01*
X66023310Y-123174000D01*
X66256699Y-123077327D01*
X66435327Y-122898698D01*
X66532000Y-122665309D01*
X66532000Y-122205750D01*
X102759000Y-122205750D01*
X102759000Y-123046309D01*
X102855673Y-123279698D01*
X103034301Y-123458327D01*
X103267690Y-123555000D01*
X104108250Y-123555000D01*
X104267000Y-123396250D01*
X104267000Y-122047000D01*
X104521000Y-122047000D01*
X104521000Y-123396250D01*
X104679750Y-123555000D01*
X105520310Y-123555000D01*
X105753699Y-123458327D01*
X105932327Y-123279698D01*
X106029000Y-123046309D01*
X106029000Y-122205750D01*
X105870250Y-122047000D01*
X104521000Y-122047000D01*
X104267000Y-122047000D01*
X102917750Y-122047000D01*
X102759000Y-122205750D01*
X66532000Y-122205750D01*
X66532000Y-121824750D01*
X66373250Y-121666000D01*
X65024000Y-121666000D01*
X64770000Y-121666000D01*
X63420750Y-121666000D01*
X63262000Y-121824750D01*
X34238000Y-121824750D01*
X34238000Y-120412691D01*
X63262000Y-120412691D01*
X63262000Y-121253250D01*
X63420750Y-121412000D01*
X64770000Y-121412000D01*
X64770000Y-120062750D01*
X65024000Y-120062750D01*
X65024000Y-121412000D01*
X66373250Y-121412000D01*
X66532000Y-121253250D01*
X66532000Y-120793691D01*
X102759000Y-120793691D01*
X102759000Y-121634250D01*
X102917750Y-121793000D01*
X104267000Y-121793000D01*
X104267000Y-120443750D01*
X104521000Y-120443750D01*
X104521000Y-121793000D01*
X105870250Y-121793000D01*
X106029000Y-121634250D01*
X106029000Y-120793691D01*
X105932327Y-120560302D01*
X105753699Y-120381673D01*
X105520310Y-120285000D01*
X104679750Y-120285000D01*
X104521000Y-120443750D01*
X104267000Y-120443750D01*
X104108250Y-120285000D01*
X103267690Y-120285000D01*
X103034301Y-120381673D01*
X102855673Y-120560302D01*
X102759000Y-120793691D01*
X66532000Y-120793691D01*
X66532000Y-120412691D01*
X66435327Y-120179302D01*
X66256699Y-120000673D01*
X66023310Y-119904000D01*
X65182750Y-119904000D01*
X65024000Y-120062750D01*
X64770000Y-120062750D01*
X64611250Y-119904000D01*
X63770690Y-119904000D01*
X63537301Y-120000673D01*
X63358673Y-120179302D01*
X63262000Y-120412691D01*
X34238000Y-120412691D01*
X34238000Y-119253000D01*
X132132000Y-119253000D01*
X132132000Y-135434000D01*
X132132000Y-135434000D01*
G37*
X132132000Y-135434000D02*
X34238000Y-135434000D01*
X34238000Y-121824750D01*
X63262000Y-121824750D01*
X63262000Y-122665309D01*
X63358673Y-122898698D01*
X63537301Y-123077327D01*
X63770690Y-123174000D01*
X64611250Y-123174000D01*
X64770000Y-123015250D01*
X64770000Y-121666000D01*
X65024000Y-121666000D01*
X65024000Y-123015250D01*
X65182750Y-123174000D01*
X66023310Y-123174000D01*
X66256699Y-123077327D01*
X66435327Y-122898698D01*
X66532000Y-122665309D01*
X66532000Y-122205750D01*
X102759000Y-122205750D01*
X102759000Y-123046309D01*
X102855673Y-123279698D01*
X103034301Y-123458327D01*
X103267690Y-123555000D01*
X104108250Y-123555000D01*
X104267000Y-123396250D01*
X104267000Y-122047000D01*
X104521000Y-122047000D01*
X104521000Y-123396250D01*
X104679750Y-123555000D01*
X105520310Y-123555000D01*
X105753699Y-123458327D01*
X105932327Y-123279698D01*
X106029000Y-123046309D01*
X106029000Y-122205750D01*
X105870250Y-122047000D01*
X104521000Y-122047000D01*
X104267000Y-122047000D01*
X102917750Y-122047000D01*
X102759000Y-122205750D01*
X66532000Y-122205750D01*
X66532000Y-121824750D01*
X66373250Y-121666000D01*
X65024000Y-121666000D01*
X64770000Y-121666000D01*
X63420750Y-121666000D01*
X63262000Y-121824750D01*
X34238000Y-121824750D01*
X34238000Y-120412691D01*
X63262000Y-120412691D01*
X63262000Y-121253250D01*
X63420750Y-121412000D01*
X64770000Y-121412000D01*
X64770000Y-120062750D01*
X65024000Y-120062750D01*
X65024000Y-121412000D01*
X66373250Y-121412000D01*
X66532000Y-121253250D01*
X66532000Y-120793691D01*
X102759000Y-120793691D01*
X102759000Y-121634250D01*
X102917750Y-121793000D01*
X104267000Y-121793000D01*
X104267000Y-120443750D01*
X104521000Y-120443750D01*
X104521000Y-121793000D01*
X105870250Y-121793000D01*
X106029000Y-121634250D01*
X106029000Y-120793691D01*
X105932327Y-120560302D01*
X105753699Y-120381673D01*
X105520310Y-120285000D01*
X104679750Y-120285000D01*
X104521000Y-120443750D01*
X104267000Y-120443750D01*
X104108250Y-120285000D01*
X103267690Y-120285000D01*
X103034301Y-120381673D01*
X102855673Y-120560302D01*
X102759000Y-120793691D01*
X66532000Y-120793691D01*
X66532000Y-120412691D01*
X66435327Y-120179302D01*
X66256699Y-120000673D01*
X66023310Y-119904000D01*
X65182750Y-119904000D01*
X65024000Y-120062750D01*
X64770000Y-120062750D01*
X64611250Y-119904000D01*
X63770690Y-119904000D01*
X63537301Y-120000673D01*
X63358673Y-120179302D01*
X63262000Y-120412691D01*
X34238000Y-120412691D01*
X34238000Y-119253000D01*
X132132000Y-119253000D01*
X132132000Y-135434000D01*
G36*
X132132000Y-113919000D02*
X34238000Y-113919000D01*
X34238000Y-112691532D01*
X63924073Y-112691532D01*
X64022736Y-112958387D01*
X64632461Y-113184908D01*
X65282460Y-113160856D01*
X65495693Y-113072532D01*
X103421073Y-113072532D01*
X103519736Y-113339387D01*
X104129461Y-113565908D01*
X104779460Y-113541856D01*
X105268264Y-113339387D01*
X105366927Y-113072532D01*
X104394000Y-112099605D01*
X103421073Y-113072532D01*
X65495693Y-113072532D01*
X65771264Y-112958387D01*
X65869927Y-112691532D01*
X64897000Y-111718605D01*
X63924073Y-112691532D01*
X34238000Y-112691532D01*
X34238000Y-111274461D01*
X63251092Y-111274461D01*
X63275144Y-111924460D01*
X63477613Y-112413264D01*
X63744468Y-112511927D01*
X64717395Y-111539000D01*
X65076605Y-111539000D01*
X66049532Y-112511927D01*
X66316387Y-112413264D01*
X66542908Y-111803539D01*
X66537429Y-111655461D01*
X102748092Y-111655461D01*
X102772144Y-112305460D01*
X102974613Y-112794264D01*
X103241468Y-112892927D01*
X104214395Y-111920000D01*
X104573605Y-111920000D01*
X105546532Y-112892927D01*
X105813387Y-112794264D01*
X106039908Y-112184539D01*
X106015856Y-111534540D01*
X105813387Y-111045736D01*
X105546532Y-110947073D01*
X104573605Y-111920000D01*
X104214395Y-111920000D01*
X103241468Y-110947073D01*
X102974613Y-111045736D01*
X102748092Y-111655461D01*
X66537429Y-111655461D01*
X66518856Y-111153540D01*
X66358940Y-110767468D01*
X103421073Y-110767468D01*
X104394000Y-111740395D01*
X105366927Y-110767468D01*
X105268264Y-110500613D01*
X104658539Y-110274092D01*
X104008540Y-110298144D01*
X103519736Y-110500613D01*
X103421073Y-110767468D01*
X66358940Y-110767468D01*
X66316387Y-110664736D01*
X66049532Y-110566073D01*
X65076605Y-111539000D01*
X64717395Y-111539000D01*
X63744468Y-110566073D01*
X63477613Y-110664736D01*
X63251092Y-111274461D01*
X34238000Y-111274461D01*
X34238000Y-110386468D01*
X63924073Y-110386468D01*
X64897000Y-111359395D01*
X65869927Y-110386468D01*
X65771264Y-110119613D01*
X65161539Y-109893092D01*
X64511540Y-109917144D01*
X64022736Y-110119613D01*
X63924073Y-110386468D01*
X34238000Y-110386468D01*
X34238000Y-98552000D01*
X132132000Y-98552000D01*
X132132000Y-113919000D01*
X132132000Y-113919000D01*
G37*
X132132000Y-113919000D02*
X34238000Y-113919000D01*
X34238000Y-112691532D01*
X63924073Y-112691532D01*
X64022736Y-112958387D01*
X64632461Y-113184908D01*
X65282460Y-113160856D01*
X65495693Y-113072532D01*
X103421073Y-113072532D01*
X103519736Y-113339387D01*
X104129461Y-113565908D01*
X104779460Y-113541856D01*
X105268264Y-113339387D01*
X105366927Y-113072532D01*
X104394000Y-112099605D01*
X103421073Y-113072532D01*
X65495693Y-113072532D01*
X65771264Y-112958387D01*
X65869927Y-112691532D01*
X64897000Y-111718605D01*
X63924073Y-112691532D01*
X34238000Y-112691532D01*
X34238000Y-111274461D01*
X63251092Y-111274461D01*
X63275144Y-111924460D01*
X63477613Y-112413264D01*
X63744468Y-112511927D01*
X64717395Y-111539000D01*
X65076605Y-111539000D01*
X66049532Y-112511927D01*
X66316387Y-112413264D01*
X66542908Y-111803539D01*
X66537429Y-111655461D01*
X102748092Y-111655461D01*
X102772144Y-112305460D01*
X102974613Y-112794264D01*
X103241468Y-112892927D01*
X104214395Y-111920000D01*
X104573605Y-111920000D01*
X105546532Y-112892927D01*
X105813387Y-112794264D01*
X106039908Y-112184539D01*
X106015856Y-111534540D01*
X105813387Y-111045736D01*
X105546532Y-110947073D01*
X104573605Y-111920000D01*
X104214395Y-111920000D01*
X103241468Y-110947073D01*
X102974613Y-111045736D01*
X102748092Y-111655461D01*
X66537429Y-111655461D01*
X66518856Y-111153540D01*
X66358940Y-110767468D01*
X103421073Y-110767468D01*
X104394000Y-111740395D01*
X105366927Y-110767468D01*
X105268264Y-110500613D01*
X104658539Y-110274092D01*
X104008540Y-110298144D01*
X103519736Y-110500613D01*
X103421073Y-110767468D01*
X66358940Y-110767468D01*
X66316387Y-110664736D01*
X66049532Y-110566073D01*
X65076605Y-111539000D01*
X64717395Y-111539000D01*
X63744468Y-110566073D01*
X63477613Y-110664736D01*
X63251092Y-111274461D01*
X34238000Y-111274461D01*
X34238000Y-110386468D01*
X63924073Y-110386468D01*
X64897000Y-111359395D01*
X65869927Y-110386468D01*
X65771264Y-110119613D01*
X65161539Y-109893092D01*
X64511540Y-109917144D01*
X64022736Y-110119613D01*
X63924073Y-110386468D01*
X34238000Y-110386468D01*
X34238000Y-98552000D01*
X132132000Y-98552000D01*
X132132000Y-113919000D01*
M02*
