G04 #@! TF.FileFunction,Soldermask,Bot*
%FSLAX46Y46*%
G04 Gerber Fmt 4.6, Leading zero omitted, Abs format (unit mm)*
G04 Created by KiCad (PCBNEW 4.0.7-e1-6374~58~ubuntu14.04.1) date Wed Aug  9 00:51:57 2017*
%MOMM*%
%LPD*%
G01*
G04 APERTURE LIST*
%ADD10C,0.100000*%
%ADD11R,2.127200X2.127200*%
%ADD12O,2.127200X2.127200*%
%ADD13O,1.901140X2.899360*%
%ADD14R,2.250000X2.250000*%
%ADD15C,2.250000*%
%ADD16R,1.800000X1.800000*%
%ADD17C,1.800000*%
%ADD18C,2.398980*%
%ADD19R,2.400000X2.400000*%
%ADD20C,2.400000*%
%ADD21C,0.254000*%
G04 APERTURE END LIST*
D10*
D11*
X37211000Y-82550000D03*
D12*
X39751000Y-82550000D03*
X37211000Y-85090000D03*
X39751000Y-85090000D03*
X37211000Y-87630000D03*
X39751000Y-87630000D03*
X37211000Y-90170000D03*
X39751000Y-90170000D03*
X37211000Y-92710000D03*
X39751000Y-92710000D03*
D13*
X52578000Y-57658000D03*
X50038000Y-57658000D03*
X55118000Y-57658000D03*
X64770000Y-57658000D03*
X62230000Y-57658000D03*
X67310000Y-57658000D03*
X76962000Y-57658000D03*
X74422000Y-57658000D03*
X79502000Y-57658000D03*
X89154000Y-57658000D03*
X86614000Y-57658000D03*
X91694000Y-57658000D03*
X101346000Y-57658000D03*
X98806000Y-57658000D03*
X103886000Y-57658000D03*
X113538000Y-57658000D03*
X110998000Y-57658000D03*
X116078000Y-57658000D03*
D14*
X114554000Y-84963000D03*
D15*
X114554000Y-82463000D03*
D14*
X59944000Y-84455000D03*
D15*
X59944000Y-81955000D03*
D14*
X69723000Y-84328000D03*
D15*
X69723000Y-81828000D03*
D14*
X79121000Y-84582000D03*
D15*
X79121000Y-82082000D03*
D14*
X88138000Y-84709000D03*
D15*
X88138000Y-82209000D03*
D14*
X97028000Y-84709000D03*
D15*
X97028000Y-82209000D03*
D14*
X105791000Y-85090000D03*
D15*
X105791000Y-82590000D03*
D14*
X49784000Y-93218000D03*
D15*
X52284000Y-93218000D03*
D11*
X125095000Y-82931000D03*
D12*
X127635000Y-82931000D03*
X125095000Y-85471000D03*
X127635000Y-85471000D03*
X125095000Y-88011000D03*
X127635000Y-88011000D03*
X125095000Y-90551000D03*
X127635000Y-90551000D03*
X125095000Y-93091000D03*
X127635000Y-93091000D03*
D16*
X128016000Y-58928000D03*
D17*
X123016000Y-58928000D03*
D18*
X130810000Y-55626000D03*
X120650000Y-55626000D03*
D19*
X64897000Y-121539000D03*
D20*
X64897000Y-111539000D03*
D19*
X104394000Y-121920000D03*
D20*
X104394000Y-111920000D03*
D21*
G36*
X132537200Y-113868200D02*
X33655000Y-113868200D01*
X33655000Y-98546197D01*
X33723589Y-98526600D01*
X132537200Y-98526600D01*
X132537200Y-113868200D01*
X132537200Y-113868200D01*
G37*
X132537200Y-113868200D02*
X33655000Y-113868200D01*
X33655000Y-98546197D01*
X33723589Y-98526600D01*
X132537200Y-98526600D01*
X132537200Y-113868200D01*
G36*
X132765800Y-135712200D02*
X33883600Y-135712200D01*
X33883600Y-119329200D01*
X132765800Y-119329200D01*
X132765800Y-135712200D01*
X132765800Y-135712200D01*
G37*
X132765800Y-135712200D02*
X33883600Y-135712200D01*
X33883600Y-119329200D01*
X132765800Y-119329200D01*
X132765800Y-135712200D01*
G36*
X132664200Y-54483000D02*
X114757200Y-54483000D01*
X114707790Y-54493006D01*
X114666165Y-54521447D01*
X114638885Y-54563841D01*
X114630200Y-54610000D01*
X114630200Y-57099200D01*
X112568437Y-57099200D01*
X112481246Y-54605562D01*
X112469520Y-54556532D01*
X112439642Y-54515927D01*
X112396321Y-54490145D01*
X112354324Y-54483000D01*
X102565200Y-54483000D01*
X102515790Y-54493006D01*
X102474165Y-54521447D01*
X102446885Y-54563841D01*
X102438200Y-54610000D01*
X102438200Y-57023000D01*
X100352918Y-57023000D01*
X100305243Y-54607494D01*
X100294264Y-54558291D01*
X100265008Y-54517236D01*
X100222083Y-54490798D01*
X100178268Y-54483000D01*
X90373200Y-54483000D01*
X90323790Y-54493006D01*
X90282165Y-54521447D01*
X90254885Y-54563841D01*
X90246200Y-54610000D01*
X90246200Y-57226200D01*
X88061800Y-57226200D01*
X88061800Y-54610000D01*
X88051794Y-54560590D01*
X88023353Y-54518965D01*
X87980959Y-54491685D01*
X87934800Y-54483000D01*
X78132423Y-54483000D01*
X78083013Y-54493006D01*
X78041388Y-54521447D01*
X78014108Y-54563841D01*
X78005428Y-54611124D01*
X78027671Y-57124600D01*
X75895200Y-57124600D01*
X75895200Y-54610000D01*
X75885194Y-54560590D01*
X75856753Y-54518965D01*
X75814359Y-54491685D01*
X75768200Y-54483000D01*
X53822600Y-54483000D01*
X53773190Y-54493006D01*
X53731565Y-54521447D01*
X53704285Y-54563841D01*
X53695600Y-54610000D01*
X53695600Y-57353200D01*
X51511200Y-57353200D01*
X51511200Y-54610000D01*
X51501194Y-54560590D01*
X51472753Y-54518965D01*
X51430359Y-54491685D01*
X51384200Y-54483000D01*
X33756222Y-54483000D01*
X33706179Y-37693600D01*
X132664200Y-37693600D01*
X132664200Y-54483000D01*
X132664200Y-54483000D01*
G37*
X132664200Y-54483000D02*
X114757200Y-54483000D01*
X114707790Y-54493006D01*
X114666165Y-54521447D01*
X114638885Y-54563841D01*
X114630200Y-54610000D01*
X114630200Y-57099200D01*
X112568437Y-57099200D01*
X112481246Y-54605562D01*
X112469520Y-54556532D01*
X112439642Y-54515927D01*
X112396321Y-54490145D01*
X112354324Y-54483000D01*
X102565200Y-54483000D01*
X102515790Y-54493006D01*
X102474165Y-54521447D01*
X102446885Y-54563841D01*
X102438200Y-54610000D01*
X102438200Y-57023000D01*
X100352918Y-57023000D01*
X100305243Y-54607494D01*
X100294264Y-54558291D01*
X100265008Y-54517236D01*
X100222083Y-54490798D01*
X100178268Y-54483000D01*
X90373200Y-54483000D01*
X90323790Y-54493006D01*
X90282165Y-54521447D01*
X90254885Y-54563841D01*
X90246200Y-54610000D01*
X90246200Y-57226200D01*
X88061800Y-57226200D01*
X88061800Y-54610000D01*
X88051794Y-54560590D01*
X88023353Y-54518965D01*
X87980959Y-54491685D01*
X87934800Y-54483000D01*
X78132423Y-54483000D01*
X78083013Y-54493006D01*
X78041388Y-54521447D01*
X78014108Y-54563841D01*
X78005428Y-54611124D01*
X78027671Y-57124600D01*
X75895200Y-57124600D01*
X75895200Y-54610000D01*
X75885194Y-54560590D01*
X75856753Y-54518965D01*
X75814359Y-54491685D01*
X75768200Y-54483000D01*
X53822600Y-54483000D01*
X53773190Y-54493006D01*
X53731565Y-54521447D01*
X53704285Y-54563841D01*
X53695600Y-54610000D01*
X53695600Y-57353200D01*
X51511200Y-57353200D01*
X51511200Y-54610000D01*
X51501194Y-54560590D01*
X51472753Y-54518965D01*
X51430359Y-54491685D01*
X51384200Y-54483000D01*
X33756222Y-54483000D01*
X33706179Y-37693600D01*
X132664200Y-37693600D01*
X132664200Y-54483000D01*
G36*
X56184800Y-59791600D02*
X56194806Y-59841010D01*
X56223247Y-59882635D01*
X56265641Y-59909915D01*
X56311800Y-59918600D01*
X66120108Y-59918600D01*
X66169518Y-59908594D01*
X66211143Y-59880153D01*
X66238423Y-59837759D01*
X66247102Y-59792821D01*
X66267385Y-57683400D01*
X68351400Y-57683400D01*
X68351400Y-59791600D01*
X68361406Y-59841010D01*
X68389847Y-59882635D01*
X68432241Y-59909915D01*
X68478400Y-59918600D01*
X78311829Y-59918600D01*
X78361239Y-59908594D01*
X78402864Y-59880153D01*
X78430144Y-59837759D01*
X78438823Y-59792809D01*
X78459396Y-57632600D01*
X80594200Y-57632600D01*
X80594200Y-59791600D01*
X80604206Y-59841010D01*
X80632647Y-59882635D01*
X80675041Y-59909915D01*
X80721200Y-59918600D01*
X90465743Y-59918600D01*
X90515153Y-59908594D01*
X90556778Y-59880153D01*
X90584058Y-59837759D01*
X90592739Y-59790616D01*
X90577388Y-57810400D01*
X92760800Y-57810400D01*
X92760800Y-59791600D01*
X92770806Y-59841010D01*
X92799247Y-59882635D01*
X92841641Y-59909915D01*
X92887800Y-59918600D01*
X102673930Y-59918600D01*
X102723340Y-59908594D01*
X102764965Y-59880153D01*
X102792245Y-59837759D01*
X102800925Y-59792714D01*
X102818091Y-57835800D01*
X104952800Y-57835800D01*
X104952800Y-59791600D01*
X104962806Y-59841010D01*
X104991247Y-59882635D01*
X105033641Y-59909915D01*
X105079800Y-59918600D01*
X114873964Y-59918600D01*
X114923374Y-59908594D01*
X114964999Y-59880153D01*
X114992279Y-59837759D01*
X115000960Y-59790652D01*
X114986751Y-57886600D01*
X117119400Y-57886600D01*
X117119400Y-59791600D01*
X117129406Y-59841010D01*
X117157847Y-59882635D01*
X117200241Y-59909915D01*
X117246400Y-59918600D01*
X132613400Y-59918600D01*
X132613400Y-76479400D01*
X33705800Y-76479400D01*
X33705800Y-59918600D01*
X53975000Y-59918600D01*
X54024410Y-59908594D01*
X54066035Y-59880153D01*
X54093315Y-59837759D01*
X54102000Y-59791600D01*
X54102000Y-57785000D01*
X54101478Y-57773502D01*
X54088669Y-57632600D01*
X56184800Y-57632600D01*
X56184800Y-59791600D01*
X56184800Y-59791600D01*
G37*
X56184800Y-59791600D02*
X56194806Y-59841010D01*
X56223247Y-59882635D01*
X56265641Y-59909915D01*
X56311800Y-59918600D01*
X66120108Y-59918600D01*
X66169518Y-59908594D01*
X66211143Y-59880153D01*
X66238423Y-59837759D01*
X66247102Y-59792821D01*
X66267385Y-57683400D01*
X68351400Y-57683400D01*
X68351400Y-59791600D01*
X68361406Y-59841010D01*
X68389847Y-59882635D01*
X68432241Y-59909915D01*
X68478400Y-59918600D01*
X78311829Y-59918600D01*
X78361239Y-59908594D01*
X78402864Y-59880153D01*
X78430144Y-59837759D01*
X78438823Y-59792809D01*
X78459396Y-57632600D01*
X80594200Y-57632600D01*
X80594200Y-59791600D01*
X80604206Y-59841010D01*
X80632647Y-59882635D01*
X80675041Y-59909915D01*
X80721200Y-59918600D01*
X90465743Y-59918600D01*
X90515153Y-59908594D01*
X90556778Y-59880153D01*
X90584058Y-59837759D01*
X90592739Y-59790616D01*
X90577388Y-57810400D01*
X92760800Y-57810400D01*
X92760800Y-59791600D01*
X92770806Y-59841010D01*
X92799247Y-59882635D01*
X92841641Y-59909915D01*
X92887800Y-59918600D01*
X102673930Y-59918600D01*
X102723340Y-59908594D01*
X102764965Y-59880153D01*
X102792245Y-59837759D01*
X102800925Y-59792714D01*
X102818091Y-57835800D01*
X104952800Y-57835800D01*
X104952800Y-59791600D01*
X104962806Y-59841010D01*
X104991247Y-59882635D01*
X105033641Y-59909915D01*
X105079800Y-59918600D01*
X114873964Y-59918600D01*
X114923374Y-59908594D01*
X114964999Y-59880153D01*
X114992279Y-59837759D01*
X115000960Y-59790652D01*
X114986751Y-57886600D01*
X117119400Y-57886600D01*
X117119400Y-59791600D01*
X117129406Y-59841010D01*
X117157847Y-59882635D01*
X117200241Y-59909915D01*
X117246400Y-59918600D01*
X132613400Y-59918600D01*
X132613400Y-76479400D01*
X33705800Y-76479400D01*
X33705800Y-59918600D01*
X53975000Y-59918600D01*
X54024410Y-59908594D01*
X54066035Y-59880153D01*
X54093315Y-59837759D01*
X54102000Y-59791600D01*
X54102000Y-57785000D01*
X54101478Y-57773502D01*
X54088669Y-57632600D01*
X56184800Y-57632600D01*
X56184800Y-59791600D01*
G36*
X65862200Y-56997600D02*
X63679173Y-56997600D01*
X63701842Y-54889400D01*
X65862200Y-54889400D01*
X65862200Y-56997600D01*
X65862200Y-56997600D01*
G37*
X65862200Y-56997600D02*
X63679173Y-56997600D01*
X63701842Y-54889400D01*
X65862200Y-54889400D01*
X65862200Y-56997600D01*
M02*
